# xmcd
#
# Track frame offsets:
#	150
#	14754
#	26386
#	40756
#	59313
#	73907
#	95085
#	109364
#	122771
#	136418
#	147563
#	162297
#	180765
#	190829
#
# Disc length: 2802
#
# Revision: 3
# Processed by: cddbd v1.5.1PL0 Copyright (c) Steve Scherf et al.
# Submitted via: VisiTrax 2.9.5.180 - For more info visit www.synapsa.com
# Normalized: r2:DSETVAR1
#
DISCID=ca0af00e
DTITLE=Various Artist - CDXMAS 1997 A
DYEAR=1997
DGENRE=
TTITLE0=Eddy Arnold - One Christmas Eve
TTITLE1=Cactus Choir - Gark The Herald Angels Sing
TTITLE2=Rhett Akins - No Room
TTITLE3=Lee Ann Womack - Nothing But A Child
TTITLE4=Mark Chesnutt - The Light Of The World
TTITLE5=Gary Allan - It Must Have Been Ol' Santa Claus
TTITLE6=Ray Stevens - The Little Drummer Boy Next Door
TTITLE7=Jimmy Buffett - Christmas Island
TTITLE8=Dwight Yoakam - Silver Bells
TTITLE9=Roy D Mercer - Jingle Fists
TTITLE10=Dolly Parton - Silent Night
TTITLE11=Nitty Gritty Dirt Band - One Christmas Tree
TTITLE12=Nitty Gritty Dirt Band - Christmas Dinner
TTITLE13=Kathy Mattea - Sending Me Angels
EXTD=
EXTT0=
EXTT1=
EXTT2=
EXTT3=
EXTT4=
EXTT5=
EXTT6=
EXTT7=
EXTT8=
EXTT9=
EXTT10=
EXTT11=
EXTT12=
EXTT13=
PLAYORDER=
